<mxfile host="app.diagrams.net" modified="2024-04-17T14:11:40.313Z" agent="Mozilla/5.0 (Macintosh; Intel Mac OS X 10_15_7) AppleWebKit/537.36 (KHTML, like Gecko) Chrome/123.0.0.0 Safari/537.36" etag="yQvIvE3bntezE5diT7ak" version="24.2.5" type="device">
  <diagram name="Page-1" id="KYQBsAUqV0LxribeiDor">
    <mxGraphModel dx="1242" dy="695" grid="1" gridSize="10" guides="1" tooltips="1" connect="1" arrows="1" fold="1" page="1" pageScale="1" pageWidth="850" pageHeight="1100" math="0" shadow="0">
      <root>
        <mxCell id="0" />
        <mxCell id="1" parent="0" />
        <mxCell id="Pyl-xsIUke99eKMYrswr-31" value="" style="rounded=1;whiteSpace=wrap;html=1;" parent="1" vertex="1">
          <mxGeometry x="30" y="210" width="620" height="80" as="geometry" />
        </mxCell>
        <mxCell id="Pyl-xsIUke99eKMYrswr-8" value="" style="rounded=1;whiteSpace=wrap;html=1;" parent="1" vertex="1">
          <mxGeometry x="350" y="70" width="460" height="80" as="geometry" />
        </mxCell>
        <mxCell id="Pyl-xsIUke99eKMYrswr-20" style="edgeStyle=orthogonalEdgeStyle;rounded=0;orthogonalLoop=1;jettySize=auto;html=1;exitX=1;exitY=0.5;exitDx=0;exitDy=0;entryX=0;entryY=0.5;entryDx=0;entryDy=0;" parent="1" source="Pyl-xsIUke99eKMYrswr-1" target="Pyl-xsIUke99eKMYrswr-2" edge="1">
          <mxGeometry relative="1" as="geometry" />
        </mxCell>
        <mxCell id="Pyl-xsIUke99eKMYrswr-1" value="Theoretical&lt;div&gt;Overview&lt;br&gt;&lt;/div&gt;" style="rounded=1;whiteSpace=wrap;html=1;" parent="1" vertex="1">
          <mxGeometry x="40" y="80" width="120" height="60" as="geometry" />
        </mxCell>
        <mxCell id="Pyl-xsIUke99eKMYrswr-21" style="edgeStyle=orthogonalEdgeStyle;rounded=0;orthogonalLoop=1;jettySize=auto;html=1;exitX=1;exitY=0.5;exitDx=0;exitDy=0;entryX=0;entryY=0.5;entryDx=0;entryDy=0;" parent="1" source="Pyl-xsIUke99eKMYrswr-2" target="Pyl-xsIUke99eKMYrswr-3" edge="1">
          <mxGeometry relative="1" as="geometry" />
        </mxCell>
        <mxCell id="Pyl-xsIUke99eKMYrswr-2" value="Prototype&lt;div&gt;Refinement&lt;br&gt;&lt;/div&gt;" style="rounded=1;whiteSpace=wrap;html=1;" parent="1" vertex="1">
          <mxGeometry x="200" y="80" width="120" height="60" as="geometry" />
        </mxCell>
        <mxCell id="Pyl-xsIUke99eKMYrswr-22" style="edgeStyle=orthogonalEdgeStyle;rounded=0;orthogonalLoop=1;jettySize=auto;html=1;exitX=1;exitY=0.5;exitDx=0;exitDy=0;entryX=0;entryY=0.5;entryDx=0;entryDy=0;" parent="1" source="Pyl-xsIUke99eKMYrswr-3" target="Pyl-xsIUke99eKMYrswr-4" edge="1">
          <mxGeometry relative="1" as="geometry" />
        </mxCell>
        <mxCell id="Pyl-xsIUke99eKMYrswr-3" value="Development&lt;div&gt;Tools&lt;/div&gt;" style="rounded=1;whiteSpace=wrap;html=1;" parent="1" vertex="1">
          <mxGeometry x="360" y="80" width="120" height="60" as="geometry" />
        </mxCell>
        <mxCell id="Pyl-xsIUke99eKMYrswr-23" style="edgeStyle=orthogonalEdgeStyle;rounded=0;orthogonalLoop=1;jettySize=auto;html=1;exitX=1;exitY=0.5;exitDx=0;exitDy=0;entryX=0;entryY=0.5;entryDx=0;entryDy=0;" parent="1" source="Pyl-xsIUke99eKMYrswr-4" target="Pyl-xsIUke99eKMYrswr-5" edge="1">
          <mxGeometry relative="1" as="geometry" />
        </mxCell>
        <mxCell id="Pyl-xsIUke99eKMYrswr-4" value="Development&lt;div&gt;Plan&lt;/div&gt;" style="rounded=1;whiteSpace=wrap;html=1;" parent="1" vertex="1">
          <mxGeometry x="520" y="80" width="120" height="60" as="geometry" />
        </mxCell>
        <mxCell id="Pyl-xsIUke99eKMYrswr-24" style="edgeStyle=orthogonalEdgeStyle;rounded=0;orthogonalLoop=1;jettySize=auto;html=1;exitX=0.5;exitY=1;exitDx=0;exitDy=0;entryX=0.5;entryY=0;entryDx=0;entryDy=0;" parent="1" source="Pyl-xsIUke99eKMYrswr-5" target="Pyl-xsIUke99eKMYrswr-13" edge="1">
          <mxGeometry relative="1" as="geometry" />
        </mxCell>
        <mxCell id="Pyl-xsIUke99eKMYrswr-5" value="Building&lt;div&gt;App&lt;/div&gt;" style="rounded=1;whiteSpace=wrap;html=1;" parent="1" vertex="1">
          <mxGeometry x="680" y="80" width="120" height="60" as="geometry" />
        </mxCell>
        <mxCell id="Pyl-xsIUke99eKMYrswr-12" value="&lt;b&gt;Development&lt;/b&gt;" style="text;html=1;align=center;verticalAlign=middle;whiteSpace=wrap;rounded=0;" parent="1" vertex="1">
          <mxGeometry x="535" y="150" width="90" height="30" as="geometry" />
        </mxCell>
        <mxCell id="Pyl-xsIUke99eKMYrswr-25" style="edgeStyle=orthogonalEdgeStyle;rounded=0;orthogonalLoop=1;jettySize=auto;html=1;exitX=1;exitY=0.5;exitDx=0;exitDy=0;entryX=0;entryY=0.5;entryDx=0;entryDy=0;" parent="1" source="Pyl-xsIUke99eKMYrswr-13" target="Pyl-xsIUke99eKMYrswr-14" edge="1">
          <mxGeometry relative="1" as="geometry" />
        </mxCell>
        <mxCell id="Pyl-xsIUke99eKMYrswr-13" value="Participant&lt;div&gt;&lt;span style=&quot;background-color: initial;&quot;&gt;Recruitment&lt;/span&gt;&lt;/div&gt;" style="rounded=1;whiteSpace=wrap;html=1;" parent="1" vertex="1">
          <mxGeometry x="40" y="220" width="120" height="60" as="geometry" />
        </mxCell>
        <mxCell id="Pyl-xsIUke99eKMYrswr-26" style="edgeStyle=orthogonalEdgeStyle;rounded=0;orthogonalLoop=1;jettySize=auto;html=1;exitX=1;exitY=0.5;exitDx=0;exitDy=0;entryX=0;entryY=0.5;entryDx=0;entryDy=0;" parent="1" source="Pyl-xsIUke99eKMYrswr-14" target="Pyl-xsIUke99eKMYrswr-19" edge="1">
          <mxGeometry relative="1" as="geometry" />
        </mxCell>
        <mxCell id="Pyl-xsIUke99eKMYrswr-14" value="Conducting&lt;div&gt;&lt;span style=&quot;background-color: initial;&quot;&gt;Interviews&lt;/span&gt;&lt;/div&gt;" style="rounded=1;whiteSpace=wrap;html=1;" parent="1" vertex="1">
          <mxGeometry x="200" y="220" width="120" height="60" as="geometry" />
        </mxCell>
        <mxCell id="Pyl-xsIUke99eKMYrswr-29" style="edgeStyle=orthogonalEdgeStyle;rounded=0;orthogonalLoop=1;jettySize=auto;html=1;exitX=1;exitY=0.5;exitDx=0;exitDy=0;entryX=0;entryY=0.5;entryDx=0;entryDy=0;" parent="1" source="Pyl-xsIUke99eKMYrswr-19" target="Pyl-xsIUke99eKMYrswr-27" edge="1">
          <mxGeometry relative="1" as="geometry" />
        </mxCell>
        <mxCell id="Pyl-xsIUke99eKMYrswr-19" value="Thematic&lt;div&gt;Analysis&lt;/div&gt;" style="rounded=1;whiteSpace=wrap;html=1;" parent="1" vertex="1">
          <mxGeometry x="360" y="220" width="120" height="60" as="geometry" />
        </mxCell>
        <mxCell id="Pyl-xsIUke99eKMYrswr-30" style="edgeStyle=orthogonalEdgeStyle;rounded=0;orthogonalLoop=1;jettySize=auto;html=1;exitX=1;exitY=0.5;exitDx=0;exitDy=0;entryX=0;entryY=0.5;entryDx=0;entryDy=0;" parent="1" source="Pyl-xsIUke99eKMYrswr-27" target="Pyl-xsIUke99eKMYrswr-28" edge="1">
          <mxGeometry relative="1" as="geometry" />
        </mxCell>
        <mxCell id="Pyl-xsIUke99eKMYrswr-27" value="Guidelines&lt;div&gt;&lt;span style=&quot;background-color: initial;&quot;&gt;Creation&lt;/span&gt;&lt;/div&gt;" style="rounded=1;whiteSpace=wrap;html=1;" parent="1" vertex="1">
          <mxGeometry x="520" y="220" width="120" height="60" as="geometry" />
        </mxCell>
        <mxCell id="Pyl-xsIUke99eKMYrswr-28" value="Results&lt;div&gt;and&lt;/div&gt;&lt;div&gt;Discussion&lt;/div&gt;" style="rounded=1;whiteSpace=wrap;html=1;" parent="1" vertex="1">
          <mxGeometry x="680" y="220" width="120" height="60" as="geometry" />
        </mxCell>
        <mxCell id="Pyl-xsIUke99eKMYrswr-32" value="&lt;b&gt;Methodology&lt;/b&gt;" style="text;html=1;align=center;verticalAlign=middle;whiteSpace=wrap;rounded=0;" parent="1" vertex="1">
          <mxGeometry x="290" y="180" width="100" height="30" as="geometry" />
        </mxCell>
        <mxCell id="Pyl-xsIUke99eKMYrswr-34" value="1" style="text;html=1;align=center;verticalAlign=middle;whiteSpace=wrap;rounded=0;" parent="1" vertex="1">
          <mxGeometry x="85" y="50" width="30" height="30" as="geometry" />
        </mxCell>
        <mxCell id="Pyl-xsIUke99eKMYrswr-35" value="2" style="text;html=1;align=center;verticalAlign=middle;whiteSpace=wrap;rounded=0;" parent="1" vertex="1">
          <mxGeometry x="245" y="50" width="30" height="30" as="geometry" />
        </mxCell>
        <mxCell id="Pyl-xsIUke99eKMYrswr-36" value="3" style="text;html=1;align=center;verticalAlign=middle;whiteSpace=wrap;rounded=0;" parent="1" vertex="1">
          <mxGeometry x="405" y="40" width="30" height="30" as="geometry" />
        </mxCell>
        <mxCell id="Pyl-xsIUke99eKMYrswr-37" value="4" style="text;html=1;align=center;verticalAlign=middle;whiteSpace=wrap;rounded=0;" parent="1" vertex="1">
          <mxGeometry x="565" y="40" width="30" height="30" as="geometry" />
        </mxCell>
        <mxCell id="Pyl-xsIUke99eKMYrswr-38" value="5" style="text;html=1;align=center;verticalAlign=middle;whiteSpace=wrap;rounded=0;" parent="1" vertex="1">
          <mxGeometry x="725" y="40" width="30" height="30" as="geometry" />
        </mxCell>
        <mxCell id="Pyl-xsIUke99eKMYrswr-41" value="6" style="text;html=1;align=center;verticalAlign=middle;whiteSpace=wrap;rounded=0;" parent="1" vertex="1">
          <mxGeometry x="85" y="290" width="30" height="30" as="geometry" />
        </mxCell>
        <mxCell id="Pyl-xsIUke99eKMYrswr-42" value="7" style="text;html=1;align=center;verticalAlign=middle;whiteSpace=wrap;rounded=0;" parent="1" vertex="1">
          <mxGeometry x="245" y="290" width="30" height="30" as="geometry" />
        </mxCell>
        <mxCell id="Pyl-xsIUke99eKMYrswr-43" value="8" style="text;html=1;align=center;verticalAlign=middle;whiteSpace=wrap;rounded=0;" parent="1" vertex="1">
          <mxGeometry x="405" y="290" width="30" height="30" as="geometry" />
        </mxCell>
        <mxCell id="Pyl-xsIUke99eKMYrswr-44" value="9" style="text;html=1;align=center;verticalAlign=middle;whiteSpace=wrap;rounded=0;" parent="1" vertex="1">
          <mxGeometry x="565" y="290" width="30" height="30" as="geometry" />
        </mxCell>
        <mxCell id="Pyl-xsIUke99eKMYrswr-45" value="10" style="text;html=1;align=center;verticalAlign=middle;whiteSpace=wrap;rounded=0;" parent="1" vertex="1">
          <mxGeometry x="720" y="280" width="40" height="30" as="geometry" />
        </mxCell>
      </root>
    </mxGraphModel>
  </diagram>
</mxfile>
